HIERARCHY
ROOT Hips
{
	OFFSET 0.000000 103.266502 0.000000
	CHANNELS 6 Xposition Yposition Zposition Xrotation Yrotation Zrotation 
	JOINT Spine
	{
		OFFSET -0.002400 12.777504 0.315300
		CHANNELS 3 Xrotation Yrotation Zrotation
		JOINT Spine1
		{
			OFFSET -0.002067 5.816869 0.032633
			CHANNELS 3 Xrotation Yrotation Zrotation
			JOINT Spine1_split
			{
				OFFSET -0.002067 5.816869 0.032633
				CHANNELS 3 Xrotation Yrotation Zrotation
				JOINT Spine2
				{
					OFFSET -0.002067 5.816869 0.032633
					CHANNELS 3 Xrotation Yrotation Zrotation
					JOINT Neck
					{
						OFFSET -0.003700 21.199493 -0.826900
						CHANNELS 3 Xrotation Yrotation Zrotation
						JOINT Head
						{
							OFFSET 0.000000 20.442200 4.834800
							CHANNELS 3 Xrotation Yrotation Zrotation
							JOINT HeadTop_End
							{
								OFFSET 0.000000 34.668396 4.968400
								CHANNELS 3 Xrotation Yrotation Zrotation
								End Site
								{
									OFFSET 0.000000 0.000000 0.000000
								}
							}
						}
					}
					JOINT LeftShoulder
					{
						OFFSET 3.288150 8.794197 -1.372250
						CHANNELS 3 Xrotation Yrotation Zrotation
						JOINT LeftShoulder_split
						{
							OFFSET 3.288150 8.794197 -1.372250
							CHANNELS 3 Xrotation Yrotation Zrotation
							JOINT LeftArm
							{
								OFFSET 11.953299 -2.279007 -0.146200
								CHANNELS 3 Xrotation Yrotation Zrotation
								JOINT LeftForeArm
								{
									OFFSET 18.448900 0.000000 0.000000
									CHANNELS 3 Xrotation Yrotation Zrotation
									JOINT LeftHand
									{
										OFFSET 29.527798 0.000000 0.000000
										CHANNELS 3 Xrotation Yrotation Zrotation
										JOINT LeftHandThumb1
										{
											OFFSET 10.739754 -2.369614 9.225399
											CHANNELS 3 Xrotation Yrotation Zrotation
											JOINT LeftHandThumb2
											{
												OFFSET 4.926170 -2.844131 2.844125
												CHANNELS 3 Xrotation Yrotation Zrotation
												JOINT LeftHandThumb3
												{
													OFFSET 4.614891 -2.664413 2.664409
													CHANNELS 3 Xrotation Yrotation Zrotation
													JOINT LeftHandThumb4
													{
														OFFSET 4.432465 -2.559082 2.559083
														CHANNELS 3 Xrotation Yrotation Zrotation
														End Site
														{
															OFFSET 0.000000 0.000000 0.000000
														}
													}
												}
											}
										}
										JOINT LeftHandIndex1
										{
											OFFSET 26.467674 0.187653 6.405298
											CHANNELS 3 Xrotation Yrotation Zrotation
											JOINT LeftHandIndex2
											{
												OFFSET 8.792900 0.000000 0.000000
												CHANNELS 3 Xrotation Yrotation Zrotation
												JOINT LeftHandIndex3
												{
													OFFSET 10.075203 0.000000 0.000000
													CHANNELS 3 Xrotation Yrotation Zrotation
													End Site
													{
														OFFSET 0.000000 0.000000 0.000000
													}
												}
											}
										}
										JOINT LeftHandMiddle1
										{
											OFFSET 25.764404 0.000000 0.000000
											CHANNELS 3 Xrotation Yrotation Zrotation
											JOINT LeftHandMiddle2
											{
												OFFSET 9.393974 0.000000 0.000000
												CHANNELS 3 Xrotation Yrotation Zrotation
												JOINT LeftHandMiddle3
												{
													OFFSET 10.771950 0.000000 0.000000
													CHANNELS 3 Xrotation Yrotation Zrotation
													End Site
													{
														OFFSET 0.000000 0.000000 0.000000
													}
												}
											}
										}
										JOINT LeftHandRing1
										{
											OFFSET 24.660927 0.144547 -6.225808
											CHANNELS 3 Xrotation Yrotation Zrotation
											JOINT LeftHandRing2
											{
												OFFSET 9.393799 0.000000 0.000000
												CHANNELS 3 Xrotation Yrotation Zrotation
												JOINT LeftHandRing3
												{
													OFFSET 9.928497 0.000000 0.000000
													CHANNELS 3 Xrotation Yrotation Zrotation
													End Site
													{
														OFFSET 0.000000 0.000000 0.000000
													}
												}
											}
										}
										JOINT LeftHandPinky1
										{
											OFFSET 23.655350 0.125290 -12.815412
											CHANNELS 3 Xrotation Yrotation Zrotation
											JOINT LeftHandPinky2
											{
												OFFSET 8.425102 0.000000 0.000000
												CHANNELS 3 Xrotation Yrotation Zrotation
												JOINT LeftHandPinky3
												{
													OFFSET 8.147003 0.000000 0.000000
													CHANNELS 3 Xrotation Yrotation Zrotation
													End Site
													{
														OFFSET 0.000000 0.000000 0.000000
													}
												}
											}
										}
									}
								}
							}
						}
					}
					JOINT RightShoulder
					{
						OFFSET -3.249400 8.794197 -1.372250
						CHANNELS 3 Xrotation Yrotation Zrotation
						JOINT RightShoulder_split
						{
							OFFSET -3.249400 8.794197 -1.372250
							CHANNELS 3 Xrotation Yrotation Zrotation
							JOINT RightArm
							{
								OFFSET -11.953299 -2.279007 -0.146200
								CHANNELS 3 Xrotation Yrotation Zrotation
								JOINT RightForeArm
								{
									OFFSET -18.448900 0.000000 0.000000
									CHANNELS 3 Xrotation Yrotation Zrotation
									JOINT RightHand
									{
										OFFSET -29.527802 0.000000 0.000000
										CHANNELS 3 Xrotation Yrotation Zrotation
										JOINT RightHandThumb1
										{
											OFFSET -10.739754 -2.369614 9.225399
											CHANNELS 3 Xrotation Yrotation Zrotation
											JOINT RightHandThumb2
											{
												OFFSET -4.926170 -2.844131 2.844125
												CHANNELS 3 Xrotation Yrotation Zrotation
												JOINT RightHandThumb3
												{
													OFFSET -4.614891 -2.664413 2.664409
													CHANNELS 3 Xrotation Yrotation Zrotation
													JOINT RightHandThumb4
													{
														OFFSET -4.432465 -2.559082 2.559083
														CHANNELS 3 Xrotation Yrotation Zrotation
														End Site
														{
															OFFSET 0.000000 0.000000 0.000000
														}
													}
												}
											}
										}
										JOINT RightHandIndex1
										{
											OFFSET -26.467674 0.187653 6.405298
											CHANNELS 3 Xrotation Yrotation Zrotation
											JOINT RightHandIndex2
											{
												OFFSET -8.792900 0.000000 0.000000
												CHANNELS 3 Xrotation Yrotation Zrotation
												JOINT RightHandIndex3
												{
													OFFSET -10.075203 0.000000 0.000000
													CHANNELS 3 Xrotation Yrotation Zrotation
													End Site
													{
														OFFSET 0.000000 0.000000 0.000000
													}
												}
											}
										}
										JOINT RightHandMiddle1
										{
											OFFSET -25.764404 0.000000 0.000000
											CHANNELS 3 Xrotation Yrotation Zrotation
											JOINT RightHandMiddle2
											{
												OFFSET -9.393974 0.000000 0.000000
												CHANNELS 3 Xrotation Yrotation Zrotation
												JOINT RightHandMiddle3
												{
													OFFSET -10.771950 0.000000 0.000000
													CHANNELS 3 Xrotation Yrotation Zrotation
													End Site
													{
														OFFSET 0.000000 0.000000 0.000000
													}
												}
											}
										}
										JOINT RightHandRing1
										{
											OFFSET -24.660927 0.144547 -6.225808
											CHANNELS 3 Xrotation Yrotation Zrotation
											JOINT RightHandRing2
											{
												OFFSET -9.393799 0.000000 0.000000
												CHANNELS 3 Xrotation Yrotation Zrotation
												JOINT RightHandRing3
												{
													OFFSET -9.928497 0.000000 0.000000
													CHANNELS 3 Xrotation Yrotation Zrotation
													End Site
													{
														OFFSET 0.000000 0.000000 0.000000
													}
												}
											}
										}
										JOINT RightHandPinky1
										{
											OFFSET -23.655350 0.125290 -12.815412
											CHANNELS 3 Xrotation Yrotation Zrotation
											JOINT RightHandPinky2
											{
												OFFSET -8.425102 0.000000 0.000000
												CHANNELS 3 Xrotation Yrotation Zrotation
												JOINT RightHandPinky3
												{
													OFFSET -8.147003 0.000000 0.000000
													CHANNELS 3 Xrotation Yrotation Zrotation
													End Site
													{
														OFFSET 0.000000 0.000000 0.000000
													}
												}
											}
										}
									}
								}
							}
						}
					}
				}
			}
		}
	}
	JOINT LeftUpLeg
	{
		OFFSET 11.394100 -6.187798 -0.413800
		CHANNELS 3 Xrotation Yrotation Zrotation
		JOINT LeftLeg
		{
			OFFSET 0.430247 -32.302673 3.732800
			CHANNELS 3 Xrotation Yrotation Zrotation
			JOINT LeftFoot
			{
				OFFSET -0.430247 -48.264931 -6.423300
				CHANNELS 3 Xrotation Yrotation Zrotation
				JOINT LeftToeBase
				{
					OFFSET 4.230900 -16.068199 23.438400
					CHANNELS 3 Xrotation Yrotation Zrotation
					JOINT LeftToe_End
					{
						OFFSET 4.510700 0.695400 19.974600
						CHANNELS 3 Xrotation Yrotation Zrotation
						End Site
						{
							OFFSET 0.000000 0.000000 0.000000
						}
					}
				}
			}
		}
	}
	JOINT RightUpLeg
	{
		OFFSET -11.333700 -6.187798 -0.413800
		CHANNELS 3 Xrotation Yrotation Zrotation
		JOINT RightLeg
		{
			OFFSET -0.430392 -32.302628 3.733000
			CHANNELS 3 Xrotation Yrotation Zrotation
			JOINT RightFoot
			{
				OFFSET 0.430392 -48.264973 -6.423500
				CHANNELS 3 Xrotation Yrotation Zrotation
				JOINT RightToeBase
				{
					OFFSET -4.230900 -16.068199 23.438400
					CHANNELS 3 Xrotation Yrotation Zrotation
					JOINT RightToe_End
					{
						OFFSET -4.510700 0.695400 19.974600
						CHANNELS 3 Xrotation Yrotation Zrotation
						End Site
						{
							OFFSET 0.000000 0.000000 0.000000
						}
					}
				}
			}
		}
	}
}
MOTION
Frames: 4
Frame Time: 0.016667
7.397722 101.609764 -0.152624 0.023891 -13.961591 -2.422331 1.265498 -1.101554 -1.740984 0.247988 -0.899452 -0.732542 0.000000 0.000000 0.000000 0.243785 -0.917160 -0.703879 0.749590 2.295821 1.468098 -1.250656 13.693913 -1.535067 0.000000 0.000000 -0.000000 -1.488744 9.670792 -3.001459 0.000000 0.000000 0.000000 40.860476 -60.704836 -25.987210 0.000005 -22.817330 0.000021 -25.332878 2.522410 11.628353 -3.405758 19.076286 14.453275 15.249468 14.620657 -5.800667 4.892160 5.223035 0.075637 0.000002 -0.000004 -0.000002 0.380315 2.260839 -19.095160 0.158439 1.471495 -12.290089 -0.000002 -0.000001 0.000000 0.379677 2.258993 -19.079157 0.158858 1.473393 -12.306076 -0.000002 -0.000000 0.000000 0.380317 2.260837 -19.095160 0.158442 1.471496 -12.290091 0.000000 -0.000000 -0.000000 1.696007 6.096993 -18.680651 0.153593 -2.584210 -12.789180 -0.000004 -0.000000 -0.000000 4.389556 5.095592 -14.946399 0.000000 0.000000 0.000000 -41.397862 -19.780018 36.650829 0.000013 107.697692 -0.000016 -54.775296 -10.060523 16.832141 -38.571871 8.421464 28.523266 20.647208 -5.709684 -0.778468 6.673644 1.573247 -3.478661 0.000002 0.000002 0.000002 6.266117 -6.914827 84.352338 5.176792 -6.719695 75.194775 -0.000002 -0.000001 -0.000001 6.266103 -6.914836 84.352338 5.176798 -6.719707 75.194782 0.000001 -0.000000 -0.000000 6.266113 -6.914823 84.352338 5.176790 -6.719693 75.194775 -0.000001 0.000002 0.000002 6.266122 -6.914830 84.352338 5.176794 -6.719693 75.194775 0.000001 0.000000 0.000002 -16.875920 21.557271 8.852824 21.502962 10.074672 5.290238 -5.861968 7.201544 -6.624800 -0.000001 -0.000008 0.000005 -0.000000 -0.000001 -0.000000 -13.715004 -18.732832 -7.877299 10.942428 9.700174 -2.995975 0.723804 8.087472 8.993705 0.000000 0.000000 -0.000000 0.000000 0.000000 -0.000000 
7.221968 101.616051 -0.149616 0.038845 -13.775195 -2.417907 1.268248 -1.088715 -1.665317 0.244306 -0.890372 -0.689607 0.000000 0.000000 0.000000 0.239953 -0.906833 -0.661084 0.708956 2.285033 1.414968 -1.291729 13.566501 -1.516493 0.000000 0.000000 0.000000 -1.481851 9.673273 -3.066330 0.000000 0.000000 0.000000 40.859646 -60.864588 -25.969267 -0.000030 -22.750773 0.000006 -25.272313 2.521546 11.564779 -3.405757 19.076288 14.453271 15.249470 14.620650 -5.800673 4.892156 5.223038 0.075636 0.000003 -0.000004 -0.000001 0.380318 2.260840 -19.095160 0.158436 1.471496 -12.290090 0.000003 -0.000001 0.000000 0.379679 2.258993 -19.079162 0.158863 1.473394 -12.306078 0.000001 0.000000 0.000001 0.380320 2.260837 -19.095163 0.158437 1.471496 -12.290090 -0.000000 -0.000001 0.000000 1.696007 6.096992 -18.680651 0.153591 -2.584210 -12.789179 0.000004 -0.000000 -0.000000 4.393044 5.145394 -14.614276 0.000000 0.000000 0.000000 -40.060040 -18.545343 36.976920 -0.000001 107.194143 -0.000015 -53.879459 -10.236982 17.000804 -38.575464 8.422912 28.525134 25.307306 -7.950572 -1.561566 8.978144 0.451546 -4.203918 0.000000 -0.000000 0.000001 5.616221 -6.819983 78.921142 4.647623 -6.558060 70.620058 0.000004 -0.000002 0.000000 5.616224 -6.819974 78.921135 4.647610 -6.558055 70.620051 -0.000003 0.000000 -0.000001 5.616222 -6.819978 78.921142 4.647624 -6.558057 70.620058 -0.000002 0.000000 0.000002 5.616226 -6.819987 78.921142 4.647624 -6.558057 70.620058 0.000001 -0.000000 -0.000002 -16.891406 21.473054 8.956898 21.443596 10.074392 5.277576 -5.767951 7.102561 -6.722195 -0.000001 -0.000008 0.000005 0.000000 -0.000003 -0.000000 -13.705456 -18.608342 -7.859448 11.123434 9.705491 -2.854776 0.589745 7.760409 8.835561 -0.000002 -0.000005 0.000002 0.000000 -0.000002 0.000000 
7.040332 101.623390 -0.147017 0.047852 -13.590636 -2.419599 1.273072 -1.080208 -1.589745 0.241808 -0.884485 -0.647218 0.000000 0.000000 0.000000 0.237302 -0.899713 -0.618708 0.663437 2.273472 1.368833 -1.324470 13.444065 -1.498671 -0.000000 0.000000 -0.000000 -1.475811 9.676770 -3.126218 0.000000 0.000000 0.000000 40.863471 -61.027651 -25.944144 -0.000013 -22.683939 0.000018 -25.239987 2.530285 11.484745 -3.405760 19.076286 14.453278 15.249468 14.620652 -5.800670 4.892158 5.223032 0.075636 0.000005 -0.000001 -0.000001 0.380316 2.260837 -19.095156 0.158443 1.471492 -12.290090 -0.000000 0.000000 0.000000 0.379674 2.258990 -19.079153 0.158855 1.473396 -12.306081 -0.000003 0.000000 0.000000 0.380319 2.260834 -19.095160 0.158443 1.471493 -12.290090 0.000000 0.000001 0.000001 1.696008 6.096989 -18.680648 0.153596 -2.584210 -12.789181 0.000004 -0.000000 -0.000000 4.393938 5.191678 -14.254581 0.000000 0.000000 0.000000 -38.714803 -17.278398 37.271885 0.000064 106.679611 -0.000050 -53.035323 -10.392672 17.074698 -38.565625 8.419032 28.520018 29.758198 -10.003517 -1.882582 11.181006 -0.630446 -4.665751 0.000002 -0.000001 0.000001 4.775626 -6.601413 71.737067 4.103763 -6.341911 65.781449 0.000001 -0.000001 -0.000001 4.775625 -6.601402 71.737067 4.103756 -6.341912 65.781443 0.000002 0.000001 -0.000000 4.775625 -6.601408 71.737074 4.103762 -6.341912 65.781443 -0.000000 -0.000002 0.000001 4.775628 -6.601415 71.737074 4.103765 -6.341913 65.781443 0.000004 0.000001 0.000001 -16.898774 21.375118 9.075499 21.383178 10.074347 5.251167 -5.672643 7.006066 -6.820856 -0.000001 -0.000008 0.000005 -0.000000 0.000001 -0.000000 -13.680110 -18.501567 -7.812780 11.293432 9.710008 -2.743310 0.457587 7.447774 8.683173 -0.000004 -0.000006 0.000002 -0.000000 -0.000003 -0.000000 
6.853770 101.632088 -0.145203 0.046343 -13.408075 -2.428756 1.279708 -1.076251 -1.515395 0.240359 -0.881939 -0.605870 0.000000 0.000000 0.000000 0.235707 -0.895951 -0.577244 0.611920 2.260316 1.331698 -1.350457 13.324899 -1.480448 0.000000 -0.000000 -0.000001 -1.470858 9.679987 -3.176229 0.000000 0.000000 0.000000 40.866159 -61.194889 -25.918657 -0.000000 -22.613870 -0.000011 -25.231067 2.553756 11.386488 -3.405762 19.076286 14.453276 15.249471 14.620653 -5.800670 4.892164 5.223036 0.075637 0.000003 -0.000002 0.000000 0.380314 2.260838 -19.095158 0.158441 1.471494 -12.290090 0.000000 -0.000001 -0.000000 0.379674 2.258993 -19.079158 0.158860 1.473394 -12.306076 -0.000000 0.000001 0.000000 0.380314 2.260837 -19.095160 0.158443 1.471495 -12.290090 -0.000001 -0.000001 -0.000000 1.696003 6.096993 -18.680648 0.153594 -2.584208 -12.789181 -0.000001 -0.000000 -0.000000 4.391630 5.233456 -13.862318 0.000000 0.000000 0.000000 -37.354988 -15.971182 37.525920 0.000062 106.153455 -0.000048 -52.233619 -10.519496 17.034881 -38.310401 8.317416 28.387243 33.606016 -11.676524 -1.838687 13.081531 -1.576562 -4.879234 0.000001 0.000001 -0.000000 3.866128 -6.230255 63.611492 3.573344 -6.077070 60.880673 0.000002 0.000002 -0.000003 3.866114 -6.230268 63.611492 3.573364 -6.077080 60.880679 -0.000002 0.000001 0.000000 3.866124 -6.230253 63.611492 3.573344 -6.077070 60.880679 -0.000003 0.000002 -0.000001 3.866130 -6.230259 63.611492 3.573343 -6.077070 60.880673 -0.000000 0.000001 0.000000 -16.894852 21.266668 9.203285 21.320330 10.074257 5.221913 -5.572832 6.908922 -6.924512 -0.000001 -0.000006 0.000005 -0.000000 0.000000 -0.000000 -13.631896 -18.400706 -7.740293 11.449899 9.713701 -2.652858 0.328576 7.139040 8.534740 -0.000003 -0.000002 0.000000 -0.000000 0.000002 -0.000000 
